<?xml version="1.0" standalone="no"?>
<!DOCTYPE svg PUBLIC "-//W3C//DTD SVG 20010904//EN"
 "http://www.w3.org/TR/2001/REC-SVG-20010904/DTD/svg10.dtd">
<svg version="1.0" xmlns="http://www.w3.org/2000/svg"
 width="5213.000000pt" height="338.000000pt" viewBox="0 0 5213.000000 338.000000"
 preserveAspectRatio="xMidYMid meet">

<g transform="translate(0.000000,338.000000) scale(0.100000,-0.100000)"
fill="#000000" stroke="none">
<path d="M6235 3098 c-211 -9 -437 -28 -735 -64 -1621 -191 -3139 -546 -4285
-1001 -460 -183 -820 -355 -1157 -554 l-58 -34 0 -722 0 -723 26065 0 26065 0
0 369 0 369 -107 26 c-276 65 -777 127 -1263 156 -472 29 -1498 29 -2030 0
-400 -22 -724 -41 -1020 -60 -809 -52 -1299 -85 -2430 -165 -1203 -85 -1485
-104 -1725 -120 -205 -13 -375 -24 -940 -60 -847 -55 -1617 -95 -2485 -130
-1418 -57 -3630 -61 -5445 -10 -291 8 -568 17 -615 20 -47 3 -195 10 -330 15
-1461 59 -3191 196 -4970 396 -488 54 -1528 179 -1825 219 -104 14 -379 51
-610 81 -604 78 -2337 319 -2590 359 -49 8 -317 48 -595 89 -1024 152 -1863
280 -3905 597 -319 49 -845 130 -1170 179 -324 50 -691 106 -815 125 -644 99
-1388 204 -2140 300 -1063 136 -1633 204 -1970 234 -283 26 -476 40 -615 46
-82 3 -168 8 -190 10 -139 14 -1586 40 -2425 44 -283 1 -789 6 -1125 11 -688
11 -2287 10 -2560 -2z"/>
</g>
</svg>
