<?xml version="1.0" standalone="no"?>
<!DOCTYPE svg PUBLIC "-//W3C//DTD SVG 20010904//EN"
 "http://www.w3.org/TR/2001/REC-SVG-20010904/DTD/svg10.dtd">
<svg version="1.0" xmlns="http://www.w3.org/2000/svg"
 width="1251.000000pt" height="84.000000pt" viewBox="0 0 1251.000000 84.000000"
 preserveAspectRatio="xMidYMid meet">

<g transform="translate(0.000000,84.000000) scale(0.100000,-0.100000)"
fill="#000000" stroke="none">
<path d="M0 685 l0 -154 53 -16 c153 -46 465 -64 812 -46 121 6 483 31 805 56
1053 80 1376 95 2030 95 1131 0 1954 -79 3920 -375 745 -112 919 -137 1190
-170 583 -71 532 -68 1328 -72 625 -4 754 -2 875 12 409 46 802 139 1084 256
139 58 217 99 321 169 l92 61 0 170 0 169 -6255 0 -6255 0 0 -155z"/>
</g>
</svg>
